<?xml version="1.0" encoding="UTF-8" standalone="no"?>
<!DOCTYPE svg PUBLIC "-//W3C//DTD SVG 1.1//EN" "http://www.w3.org/Graphics/SVG/1.1/DTD/svg11.dtd">
<svg width="100%" height="100%" viewBox="0 0 312 185" version="1.1" xmlns="http://www.w3.org/2000/svg" xmlns:xlink="http://www.w3.org/1999/xlink" xml:space="preserve" xmlns:serif="http://www.serif.com/" style="fill-rule:evenodd;clip-rule:evenodd;stroke-linecap:round;stroke-linejoin:round;">
    <g transform="matrix(1,0,0,1,-250,-463.21)">
        <path d="M561.41,467.75L561.41,641.15C561.41,642.33 560.94,643.45 560.11,644.28C559.28,645.11 558.15,645.58 556.97,645.58L372.57,645.58L363.42,644.27C360.97,644.27 358.98,643.59 358.98,641.14L358.98,467.75C358.98,466.57 359.46,465.45 360.29,464.62C361.12,463.78 362.24,463.31 363.42,463.31L556.97,463.31C558.15,463.31 559.28,463.78 560.11,464.62C560.94,465.45 561.41,466.57 561.41,467.75Z" style="fill:rgb(254,215,170);fill-rule:nonzero;"/>
        <path d="M371.5,505.75L408.75,474" style="fill:none;fill-rule:nonzero;stroke:rgb(248,157,51);stroke-width:3px;"/>
        <path d="M557.51,645.58L363.42,645.58" style="fill:none;fill-rule:nonzero;stroke:rgb(248,157,51);stroke-width:3px;"/>
        <path d="M508.89,551.19L363.87,551.19" style="fill:none;fill-rule:nonzero;stroke:rgb(248,157,51);stroke-width:3px;"/>
        <path d="M516.83,645.61C516.8,645.61 516.78,645.6 516.76,645.58C516.74,645.56 516.73,645.53 516.73,645.5L516.73,463.38C516.73,463.35 516.74,463.33 516.76,463.31C516.78,463.29 516.8,463.28 516.83,463.28L556.97,463.21C558.17,463.22 559.33,463.69 560.18,464.54C561.03,465.39 561.51,466.55 561.52,467.75L561.52,641.14C561.52,642.35 561.03,643.49 560.18,644.35C559.33,645.2 558.17,645.68 556.97,645.68L516.83,645.61Z" style="fill:rgb(248,157,51);fill-rule:nonzero;"/>
        <path d="M548.58,463.31L548.58,574.13L546.95,572.91L544.51,574.13L541.66,572.91L539.02,574.13L536.17,572.91L533.52,574.13L533.52,463.31L548.58,463.31Z" style="fill:white;fill-rule:nonzero;"/>
        <path d="M548.58,546.77L548.58,645.58L533.52,645.58L533.52,546.77L536.17,547.99L539.02,546.77L541.66,547.99L544.51,546.77L546.95,547.99L548.58,546.77Z" style="fill:white;fill-rule:nonzero;"/>
        <path d="M420.85,478.89L367.33,478.89C367.27,478.89 367.23,478.94 367.23,478.99L367.23,499.55C367.23,499.61 367.27,499.65 367.33,499.65L420.85,499.65C420.91,499.65 420.96,499.61 420.96,499.55L420.96,478.99C420.96,478.94 420.91,478.89 420.85,478.89Z" style="fill:white;fill-rule:nonzero;"/>
        <path d="M559.27,467.72L363.11,467.72" style="fill:none;fill-rule:nonzero;stroke:rgb(255,244,232);stroke-width:3px;"/>
        <path d="M534.95,645.58L546.95,645.58" style="fill:none;fill-rule:nonzero;stroke:rgb(202,202,202);stroke-width:3px;"/>
        <path d="M500.95,630.92L522.33,617.49" style="fill:none;fill-rule:nonzero;stroke:rgb(248,157,51);stroke-width:3px;"/>
        <path d="M375.78,535.21L375.78,642.38C375.78,642.8 375.7,643.22 375.54,643.6C375.38,643.99 375.14,644.35 374.84,644.64C374.55,644.94 374.19,645.18 373.8,645.34C373.41,645.49 373,645.58 372.58,645.58L306.38,645.58C298.56,642.63 292.73,642.59 283.99,645.58L253.2,645.58C252.78,645.58 252.36,645.49 251.98,645.34C251.59,645.18 251.23,644.94 250.94,644.64C250.64,644.35 250.4,643.99 250.24,643.6C250.08,643.22 250,642.8 250,642.38L250,535.21C250,534.78 250.08,534.37 250.24,533.99C250.4,533.6 250.64,533.24 250.94,532.94C251.23,532.65 251.59,532.41 251.98,532.25C252.36,532.09 252.78,532.01 253.2,532.01L283.99,532.01C292.75,534.14 297.73,534.51 306.38,532.01L372.58,532.01C373,532.01 373.41,532.09 373.8,532.25C374.19,532.41 374.55,532.65 374.84,532.94C375.14,533.24 375.38,533.6 375.54,533.99C375.7,534.37 375.78,534.78 375.78,535.21Z" style="fill:rgb(254,215,170);fill-rule:nonzero;"/>
        <path d="M345.87,645.61C345.86,645.61 345.83,645.61 345.82,645.6C345.81,645.6 345.8,645.59 345.79,645.58C345.78,645.57 345.77,645.56 345.77,645.55C345.76,645.53 345.76,645.51 345.76,645.5L345.76,532.09C345.76,532.08 345.76,532.06 345.77,532.05C345.77,532.04 345.78,532.03 345.79,532.02C345.8,532.01 345.81,532 345.82,532C345.83,531.99 345.86,531.99 345.87,531.99L372.58,531.9C373.46,531.9 374.3,532.25 374.92,532.87C375.54,533.49 375.89,534.33 375.89,535.21L375.89,642.38C375.89,643.25 375.54,644.09 374.92,644.71C374.3,645.34 373.46,645.68 372.58,645.68L345.87,645.61Z" style="fill:rgb(248,157,51);fill-rule:nonzero;"/>
        <rect x="283.99" y="532.01" width="22.39" height="54.35" style="fill:white;fill-rule:nonzero;"/>
        <rect x="283.99" y="591.44" width="22.39" height="54.14" style="fill:white;fill-rule:nonzero;"/>
        <path d="M323.47,636.43L349.12,619.32" style="fill:none;fill-rule:nonzero;stroke:rgb(248,157,51);stroke-width:3px;"/>
        <path d="M253.45,547.86L262.81,543.39" style="fill:none;fill-rule:nonzero;stroke:rgb(248,157,51);stroke-width:3px;"/>
        <path d="M253.45,535.97L371.97,535.97" style="fill:none;fill-rule:nonzero;stroke:rgb(255,244,232);stroke-width:3px;"/>
        <path d="M254.27,621.36L257.52,633.97" style="fill:none;fill-rule:nonzero;stroke:rgb(248,157,51);stroke-width:3px;"/>
        <path d="M349.32,645.79L253.05,645.79" style="fill:none;fill-rule:nonzero;stroke:rgb(248,157,51);stroke-width:3px;"/>
    </g>
</svg>
